<mxfile host="app.diagrams.net" modified="2023-02-25T00:26:33.805Z" agent="5.0 (Macintosh; Intel Mac OS X 10_15_7) AppleWebKit/537.36 (KHTML, like Gecko) Chrome/110.0.0.0 Safari/537.36" etag="tyMi06ggYMFSNwUnXx2I" version="20.8.23" type="github">
  <diagram name="Page-1" id="iKSSGSfsI78JwVMg9x92">
    <mxGraphModel dx="2084" dy="1131" grid="1" gridSize="10" guides="1" tooltips="1" connect="1" arrows="1" fold="1" page="1" pageScale="1" pageWidth="850" pageHeight="1100" math="0" shadow="0">
      <root>
        <mxCell id="0" />
        <mxCell id="1" parent="0" />
        <mxCell id="REabcQUZrqvfgA8ZS0G6-57" value="" style="ellipse;whiteSpace=wrap;html=1;aspect=fixed;strokeColor=#FF0000;dashed=1;fillColor=#fff2cc;strokeWidth=1;" parent="1" vertex="1">
          <mxGeometry x="-1" y="270" width="152" height="152" as="geometry" />
        </mxCell>
        <mxCell id="REabcQUZrqvfgA8ZS0G6-1" value="" style="sketch=0;points=[[0,0,0],[0.25,0,0],[0.5,0,0],[0.75,0,0],[1,0,0],[0,1,0],[0.25,1,0],[0.5,1,0],[0.75,1,0],[1,1,0],[0,0.25,0],[0,0.5,0],[0,0.75,0],[1,0.25,0],[1,0.5,0],[1,0.75,0]];outlineConnect=0;fontColor=#232F3E;gradientColor=#F78E04;gradientDirection=north;fillColor=#D05C17;strokeColor=#ffffff;dashed=0;verticalLabelPosition=bottom;verticalAlign=top;align=center;html=1;fontSize=12;fontStyle=0;aspect=fixed;shape=mxgraph.aws4.resourceIcon;resIcon=mxgraph.aws4.eks;" parent="1" vertex="1">
          <mxGeometry x="415" y="300" width="78" height="78" as="geometry" />
        </mxCell>
        <mxCell id="REabcQUZrqvfgA8ZS0G6-2" value="" style="sketch=0;points=[[0,0,0],[0.25,0,0],[0.5,0,0],[0.75,0,0],[1,0,0],[0,1,0],[0.25,1,0],[0.5,1,0],[0.75,1,0],[1,1,0],[0,0.25,0],[0,0.5,0],[0,0.75,0],[1,0.25,0],[1,0.5,0],[1,0.75,0]];outlineConnect=0;fontColor=#232F3E;gradientColor=#F78E04;gradientDirection=north;fillColor=#D05C17;strokeColor=#ffffff;dashed=0;verticalLabelPosition=bottom;verticalAlign=top;align=center;html=1;fontSize=12;fontStyle=0;aspect=fixed;shape=mxgraph.aws4.resourceIcon;resIcon=mxgraph.aws4.eks;" parent="1" vertex="1">
          <mxGeometry x="416" y="469" width="78" height="78" as="geometry" />
        </mxCell>
        <mxCell id="REabcQUZrqvfgA8ZS0G6-3" value="" style="sketch=0;points=[[0,0,0],[0.25,0,0],[0.5,0,0],[0.75,0,0],[1,0,0],[0,1,0],[0.25,1,0],[0.5,1,0],[0.75,1,0],[1,1,0],[0,0.25,0],[0,0.5,0],[0,0.75,0],[1,0.25,0],[1,0.5,0],[1,0.75,0]];outlineConnect=0;fontColor=#232F3E;gradientColor=#F78E04;gradientDirection=north;fillColor=#D05C17;strokeColor=#ffffff;dashed=0;verticalLabelPosition=bottom;verticalAlign=top;align=center;html=1;fontSize=12;fontStyle=0;aspect=fixed;shape=mxgraph.aws4.resourceIcon;resIcon=mxgraph.aws4.eks;" parent="1" vertex="1">
          <mxGeometry x="415" y="640" width="78" height="78" as="geometry" />
        </mxCell>
        <mxCell id="REabcQUZrqvfgA8ZS0G6-4" value="" style="sketch=0;points=[[0,0,0],[0.25,0,0],[0.5,0,0],[0.75,0,0],[1,0,0],[0,1,0],[0.25,1,0],[0.5,1,0],[0.75,1,0],[1,1,0],[0,0.25,0],[0,0.5,0],[0,0.75,0],[1,0.25,0],[1,0.5,0],[1,0.75,0]];outlineConnect=0;fontColor=#232F3E;gradientColor=#F78E04;gradientDirection=north;fillColor=#D05C17;strokeColor=#ffffff;dashed=0;verticalLabelPosition=bottom;verticalAlign=top;align=center;html=1;fontSize=12;fontStyle=0;aspect=fixed;shape=mxgraph.aws4.resourceIcon;resIcon=mxgraph.aws4.eks;" parent="1" vertex="1">
          <mxGeometry x="415" y="810" width="78" height="78" as="geometry" />
        </mxCell>
        <mxCell id="REabcQUZrqvfgA8ZS0G6-25" style="edgeStyle=orthogonalEdgeStyle;curved=1;rounded=0;orthogonalLoop=1;jettySize=auto;html=1;entryX=0;entryY=0.5;entryDx=0;entryDy=0;entryPerimeter=0;strokeColor=#660000;startArrow=classic;startFill=1;strokeWidth=3;" parent="1" source="REabcQUZrqvfgA8ZS0G6-5" target="REabcQUZrqvfgA8ZS0G6-1" edge="1">
          <mxGeometry relative="1" as="geometry" />
        </mxCell>
        <mxCell id="REabcQUZrqvfgA8ZS0G6-27" style="edgeStyle=orthogonalEdgeStyle;curved=1;rounded=0;orthogonalLoop=1;jettySize=auto;html=1;entryX=0.5;entryY=0;entryDx=0;entryDy=0;entryPerimeter=0;strokeColor=#CCCCCC;dashed=1;" parent="1" source="REabcQUZrqvfgA8ZS0G6-5" target="REabcQUZrqvfgA8ZS0G6-2" edge="1">
          <mxGeometry relative="1" as="geometry" />
        </mxCell>
        <mxCell id="REabcQUZrqvfgA8ZS0G6-28" style="edgeStyle=orthogonalEdgeStyle;curved=1;rounded=0;orthogonalLoop=1;jettySize=auto;html=1;entryX=0.5;entryY=0;entryDx=0;entryDy=0;entryPerimeter=0;strokeColor=#CCCCCC;dashed=1;" parent="1" source="REabcQUZrqvfgA8ZS0G6-5" target="REabcQUZrqvfgA8ZS0G6-3" edge="1">
          <mxGeometry relative="1" as="geometry" />
        </mxCell>
        <mxCell id="REabcQUZrqvfgA8ZS0G6-29" style="edgeStyle=orthogonalEdgeStyle;curved=1;rounded=0;orthogonalLoop=1;jettySize=auto;html=1;strokeColor=#CCCCCC;dashed=1;" parent="1" source="REabcQUZrqvfgA8ZS0G6-5" target="REabcQUZrqvfgA8ZS0G6-4" edge="1">
          <mxGeometry relative="1" as="geometry" />
        </mxCell>
        <mxCell id="REabcQUZrqvfgA8ZS0G6-47" style="edgeStyle=orthogonalEdgeStyle;rounded=0;orthogonalLoop=1;jettySize=auto;html=1;entryX=0.5;entryY=1;entryDx=0;entryDy=0;dashed=1;strokeColor=#CC0000;strokeWidth=1;startArrow=none;startFill=0;" parent="1" source="REabcQUZrqvfgA8ZS0G6-5" target="REabcQUZrqvfgA8ZS0G6-44" edge="1">
          <mxGeometry relative="1" as="geometry">
            <Array as="points">
              <mxPoint x="74" y="250" />
              <mxPoint x="-65" y="250" />
            </Array>
          </mxGeometry>
        </mxCell>
        <mxCell id="REabcQUZrqvfgA8ZS0G6-48" style="edgeStyle=orthogonalEdgeStyle;rounded=0;orthogonalLoop=1;jettySize=auto;html=1;entryX=0.5;entryY=1;entryDx=0;entryDy=0;dashed=1;strokeColor=#CC0000;strokeWidth=1;startArrow=none;startFill=0;" parent="1" source="REabcQUZrqvfgA8ZS0G6-5" target="REabcQUZrqvfgA8ZS0G6-45" edge="1">
          <mxGeometry relative="1" as="geometry" />
        </mxCell>
        <mxCell id="REabcQUZrqvfgA8ZS0G6-49" style="edgeStyle=orthogonalEdgeStyle;rounded=0;orthogonalLoop=1;jettySize=auto;html=1;entryX=0.5;entryY=1;entryDx=0;entryDy=0;dashed=1;strokeColor=#CC0000;strokeWidth=1;startArrow=none;startFill=0;" parent="1" source="REabcQUZrqvfgA8ZS0G6-5" target="REabcQUZrqvfgA8ZS0G6-46" edge="1">
          <mxGeometry relative="1" as="geometry">
            <Array as="points">
              <mxPoint x="74" y="250" />
              <mxPoint x="235" y="250" />
            </Array>
          </mxGeometry>
        </mxCell>
        <mxCell id="REabcQUZrqvfgA8ZS0G6-53" style="edgeStyle=entityRelationEdgeStyle;rounded=0;orthogonalLoop=1;jettySize=auto;html=1;dashed=1;strokeColor=#CC0000;strokeWidth=1;startArrow=none;startFill=0;" parent="1" source="REabcQUZrqvfgA8ZS0G6-5" target="REabcQUZrqvfgA8ZS0G6-52" edge="1">
          <mxGeometry relative="1" as="geometry" />
        </mxCell>
        <mxCell id="REabcQUZrqvfgA8ZS0G6-5" value="Rancher Cluster (EKS)" style="sketch=0;points=[[0,0,0],[0.25,0,0],[0.5,0,0],[0.75,0,0],[1,0,0],[0,1,0],[0.25,1,0],[0.5,1,0],[0.75,1,0],[1,1,0],[0,0.25,0],[0,0.5,0],[0,0.75,0],[1,0.25,0],[1,0.5,0],[1,0.75,0]];outlineConnect=0;fontColor=#232F3E;gradientColor=#F78E04;gradientDirection=north;fillColor=#D05C17;strokeColor=#ffffff;dashed=0;verticalLabelPosition=bottom;verticalAlign=top;align=center;html=1;fontSize=12;fontStyle=0;aspect=fixed;shape=mxgraph.aws4.resourceIcon;resIcon=mxgraph.aws4.eks;" parent="1" vertex="1">
          <mxGeometry x="35" y="300" width="78" height="78" as="geometry" />
        </mxCell>
        <mxCell id="REabcQUZrqvfgA8ZS0G6-6" value="" style="shape=umlActor;verticalLabelPosition=bottom;verticalAlign=top;html=1;outlineConnect=0;" parent="1" vertex="1">
          <mxGeometry x="-265" y="468" width="30" height="60" as="geometry" />
        </mxCell>
        <mxCell id="REabcQUZrqvfgA8ZS0G6-31" style="edgeStyle=orthogonalEdgeStyle;curved=1;rounded=0;orthogonalLoop=1;jettySize=auto;html=1;dashed=1;dashPattern=8 8;strokeColor=#CCCCCC;" parent="1" source="REabcQUZrqvfgA8ZS0G6-13" target="REabcQUZrqvfgA8ZS0G6-2" edge="1">
          <mxGeometry relative="1" as="geometry" />
        </mxCell>
        <mxCell id="REabcQUZrqvfgA8ZS0G6-13" value="" style="shape=umlActor;verticalLabelPosition=bottom;verticalAlign=top;html=1;outlineConnect=0;" parent="1" vertex="1">
          <mxGeometry x="-255" y="478" width="30" height="60" as="geometry" />
        </mxCell>
        <mxCell id="REabcQUZrqvfgA8ZS0G6-20" style="edgeStyle=orthogonalEdgeStyle;curved=1;rounded=0;orthogonalLoop=1;jettySize=auto;html=1;entryX=0;entryY=0.5;entryDx=0;entryDy=0;entryPerimeter=0;strokeColor=#660000;startArrow=classic;startFill=1;strokeWidth=3;" parent="1" source="REabcQUZrqvfgA8ZS0G6-14" target="REabcQUZrqvfgA8ZS0G6-5" edge="1">
          <mxGeometry relative="1" as="geometry" />
        </mxCell>
        <mxCell id="REabcQUZrqvfgA8ZS0G6-21" style="edgeStyle=orthogonalEdgeStyle;curved=1;rounded=0;orthogonalLoop=1;jettySize=auto;html=1;strokeColor=#006600;startArrow=classic;startFill=1;strokeWidth=3;" parent="1" source="REabcQUZrqvfgA8ZS0G6-14" target="REabcQUZrqvfgA8ZS0G6-1" edge="1">
          <mxGeometry relative="1" as="geometry" />
        </mxCell>
        <mxCell id="REabcQUZrqvfgA8ZS0G6-32" style="edgeStyle=orthogonalEdgeStyle;curved=1;rounded=0;orthogonalLoop=1;jettySize=auto;html=1;entryX=0;entryY=0.5;entryDx=0;entryDy=0;entryPerimeter=0;dashed=1;dashPattern=8 8;strokeColor=#CCCCCC;" parent="1" source="REabcQUZrqvfgA8ZS0G6-14" target="REabcQUZrqvfgA8ZS0G6-3" edge="1">
          <mxGeometry relative="1" as="geometry" />
        </mxCell>
        <mxCell id="REabcQUZrqvfgA8ZS0G6-33" style="edgeStyle=orthogonalEdgeStyle;curved=1;rounded=0;orthogonalLoop=1;jettySize=auto;html=1;entryX=0;entryY=0.5;entryDx=0;entryDy=0;entryPerimeter=0;dashed=1;dashPattern=8 8;strokeColor=#CCCCCC;" parent="1" source="REabcQUZrqvfgA8ZS0G6-14" target="REabcQUZrqvfgA8ZS0G6-4" edge="1">
          <mxGeometry relative="1" as="geometry" />
        </mxCell>
        <mxCell id="REabcQUZrqvfgA8ZS0G6-14" value="" style="shape=umlActor;verticalLabelPosition=bottom;verticalAlign=top;html=1;outlineConnect=0;" parent="1" vertex="1">
          <mxGeometry x="-245" y="488" width="30" height="60" as="geometry" />
        </mxCell>
        <mxCell id="REabcQUZrqvfgA8ZS0G6-16" value="" style="shape=umlActor;verticalLabelPosition=bottom;verticalAlign=top;html=1;outlineConnect=0;" parent="1" vertex="1">
          <mxGeometry x="-260" y="710" width="30" height="60" as="geometry" />
        </mxCell>
        <mxCell id="REabcQUZrqvfgA8ZS0G6-17" value="" style="shape=umlActor;verticalLabelPosition=bottom;verticalAlign=top;html=1;outlineConnect=0;" parent="1" vertex="1">
          <mxGeometry x="-250" y="720" width="30" height="60" as="geometry" />
        </mxCell>
        <mxCell id="REabcQUZrqvfgA8ZS0G6-23" style="edgeStyle=orthogonalEdgeStyle;curved=1;rounded=0;orthogonalLoop=1;jettySize=auto;html=1;strokeColor=#006600;startArrow=classic;startFill=1;strokeWidth=3;" parent="1" source="REabcQUZrqvfgA8ZS0G6-18" target="REabcQUZrqvfgA8ZS0G6-1" edge="1">
          <mxGeometry relative="1" as="geometry" />
        </mxCell>
        <mxCell id="REabcQUZrqvfgA8ZS0G6-24" style="edgeStyle=orthogonalEdgeStyle;curved=1;rounded=0;orthogonalLoop=1;jettySize=auto;html=1;entryX=0;entryY=0.5;entryDx=0;entryDy=0;entryPerimeter=0;strokeColor=#660000;startArrow=classic;startFill=1;strokeWidth=3;" parent="1" source="REabcQUZrqvfgA8ZS0G6-18" target="REabcQUZrqvfgA8ZS0G6-5" edge="1">
          <mxGeometry relative="1" as="geometry" />
        </mxCell>
        <mxCell id="REabcQUZrqvfgA8ZS0G6-34" style="edgeStyle=orthogonalEdgeStyle;curved=1;rounded=0;orthogonalLoop=1;jettySize=auto;html=1;dashed=1;dashPattern=8 8;strokeColor=#CCCCCC;" parent="1" source="REabcQUZrqvfgA8ZS0G6-18" target="REabcQUZrqvfgA8ZS0G6-2" edge="1">
          <mxGeometry relative="1" as="geometry" />
        </mxCell>
        <mxCell id="REabcQUZrqvfgA8ZS0G6-35" style="edgeStyle=orthogonalEdgeStyle;curved=1;rounded=0;orthogonalLoop=1;jettySize=auto;html=1;entryX=0;entryY=0.5;entryDx=0;entryDy=0;entryPerimeter=0;dashed=1;dashPattern=8 8;strokeColor=#CCCCCC;" parent="1" source="REabcQUZrqvfgA8ZS0G6-18" target="REabcQUZrqvfgA8ZS0G6-3" edge="1">
          <mxGeometry relative="1" as="geometry" />
        </mxCell>
        <mxCell id="REabcQUZrqvfgA8ZS0G6-36" style="edgeStyle=orthogonalEdgeStyle;curved=1;rounded=0;orthogonalLoop=1;jettySize=auto;html=1;entryX=0;entryY=0.5;entryDx=0;entryDy=0;entryPerimeter=0;dashed=1;dashPattern=8 8;strokeColor=#CCCCCC;" parent="1" source="REabcQUZrqvfgA8ZS0G6-18" target="REabcQUZrqvfgA8ZS0G6-4" edge="1">
          <mxGeometry relative="1" as="geometry" />
        </mxCell>
        <mxCell id="REabcQUZrqvfgA8ZS0G6-18" value="Kube Developers" style="shape=umlActor;verticalLabelPosition=bottom;verticalAlign=top;html=1;outlineConnect=0;" parent="1" vertex="1">
          <mxGeometry x="-240" y="730" width="30" height="60" as="geometry" />
        </mxCell>
        <mxCell id="REabcQUZrqvfgA8ZS0G6-19" value="Kube Admins" style="text;html=1;align=center;verticalAlign=middle;resizable=0;points=[];autosize=1;strokeColor=none;fillColor=none;" parent="1" vertex="1">
          <mxGeometry x="-275" y="560" width="90" height="30" as="geometry" />
        </mxCell>
        <mxCell id="REabcQUZrqvfgA8ZS0G6-38" value="EKS cluster A" style="text;html=1;align=center;verticalAlign=middle;resizable=0;points=[];autosize=1;strokeColor=none;fillColor=none;" parent="1" vertex="1">
          <mxGeometry x="525" y="320" width="100" height="30" as="geometry" />
        </mxCell>
        <mxCell id="REabcQUZrqvfgA8ZS0G6-39" value="EKS cluster B" style="text;html=1;align=center;verticalAlign=middle;resizable=0;points=[];autosize=1;strokeColor=none;fillColor=none;" parent="1" vertex="1">
          <mxGeometry x="525" y="493" width="100" height="30" as="geometry" />
        </mxCell>
        <mxCell id="REabcQUZrqvfgA8ZS0G6-40" value="EKS cluster C" style="text;html=1;align=center;verticalAlign=middle;resizable=0;points=[];autosize=1;strokeColor=none;fillColor=none;" parent="1" vertex="1">
          <mxGeometry x="535" y="665" width="100" height="30" as="geometry" />
        </mxCell>
        <mxCell id="REabcQUZrqvfgA8ZS0G6-41" value="EKS cluster ..." style="text;html=1;align=center;verticalAlign=middle;resizable=0;points=[];autosize=1;strokeColor=none;fillColor=none;" parent="1" vertex="1">
          <mxGeometry x="535" y="834" width="100" height="30" as="geometry" />
        </mxCell>
        <mxCell id="REabcQUZrqvfgA8ZS0G6-44" value="EKS Management" style="ellipse;whiteSpace=wrap;html=1;aspect=fixed;" parent="1" vertex="1">
          <mxGeometry x="-105" y="120" width="80" height="80" as="geometry" />
        </mxCell>
        <mxCell id="REabcQUZrqvfgA8ZS0G6-45" value="EKS connections" style="ellipse;whiteSpace=wrap;html=1;aspect=fixed;" parent="1" vertex="1">
          <mxGeometry x="35" y="120" width="80" height="80" as="geometry" />
        </mxCell>
        <mxCell id="REabcQUZrqvfgA8ZS0G6-46" value="EKS monitoring" style="ellipse;whiteSpace=wrap;html=1;aspect=fixed;" parent="1" vertex="1">
          <mxGeometry x="195" y="120" width="80" height="80" as="geometry" />
        </mxCell>
        <mxCell id="REabcQUZrqvfgA8ZS0G6-52" value="&lt;ul style=&quot;font-size: 15px;&quot;&gt;&lt;li style=&quot;text-align: justify; font-size: 15px;&quot;&gt;? Single failure.&lt;/li&gt;&lt;li style=&quot;text-align: justify; font-size: 15px;&quot;&gt;? Backup/restore.&lt;/li&gt;&lt;li style=&quot;text-align: justify; font-size: 15px;&quot;&gt;? Always available.&lt;br style=&quot;font-size: 15px;&quot;&gt;&lt;/li&gt;&lt;li style=&quot;text-align: justify; font-size: 15px;&quot;&gt;? Git repo works&lt;/li&gt;&lt;li style=&quot;text-align: justify; font-size: 15px;&quot;&gt;???&lt;/li&gt;&lt;/ul&gt;" style="text;html=1;align=center;verticalAlign=middle;resizable=0;points=[];autosize=1;strokeColor=none;fillColor=none;strokeWidth=1;fontSize=15;" parent="1" vertex="1">
          <mxGeometry x="-380" y="195" width="190" height="130" as="geometry" />
        </mxCell>
        <mxCell id="REabcQUZrqvfgA8ZS0G6-58" value="" style="shape=image;html=1;verticalAlign=top;verticalLabelPosition=bottom;labelBackgroundColor=#ffffff;imageAspect=0;aspect=fixed;image=https://cdn4.iconfinder.com/data/icons/success-filloutline/64/idea-read-knowledge-light_bulb-thinking-128.png;dashed=1;strokeColor=#FF0000;strokeWidth=1;" parent="1" vertex="1">
          <mxGeometry x="-365" y="160" width="50" height="50" as="geometry" />
        </mxCell>
      </root>
    </mxGraphModel>
  </diagram>
</mxfile>
